<mxfile host="app.diagrams.net" agent="Mozilla/5.0 (Windows NT 10.0; Win64; x64; rv:132.0) Gecko/20100101 Firefox/132.0" version="24.8.8">
  <diagram name="Page-1" id="zT0M7SMB6z9qxpsJ-Omt">
    <mxGraphModel dx="988" dy="544" grid="1" gridSize="10" guides="1" tooltips="1" connect="1" arrows="1" fold="1" page="1" pageScale="1" pageWidth="850" pageHeight="1100" math="0" shadow="0">
      <root>
        <mxCell id="0" />
        <mxCell id="1" parent="0" />
        <mxCell id="dGMlPyoEv6RWTaXQxsTw-6" style="edgeStyle=orthogonalEdgeStyle;rounded=0;orthogonalLoop=1;jettySize=auto;html=1;entryX=0;entryY=0.5;entryDx=0;entryDy=0;entryPerimeter=0;" parent="1" source="dGMlPyoEv6RWTaXQxsTw-1" edge="1">
          <mxGeometry relative="1" as="geometry">
            <mxPoint x="220" y="220" as="targetPoint" />
            <Array as="points">
              <mxPoint x="155" y="220" />
            </Array>
          </mxGeometry>
        </mxCell>
        <mxCell id="dGMlPyoEv6RWTaXQxsTw-1" value="" style="verticalLabelPosition=bottom;shadow=0;dashed=0;align=center;html=1;verticalAlign=top;shape=mxgraph.electrical.radio.aerial_-_antenna_2;" parent="1" vertex="1">
          <mxGeometry x="130" y="130" width="50" height="70" as="geometry" />
        </mxCell>
        <mxCell id="dGMlPyoEv6RWTaXQxsTw-7" value="" style="verticalLabelPosition=bottom;shadow=0;dashed=0;align=center;html=1;verticalAlign=top;shape=mxgraph.electrical.abstract.amplifier;" parent="1" vertex="1">
          <mxGeometry x="360" y="185" width="60" height="70" as="geometry" />
        </mxCell>
        <mxCell id="dGMlPyoEv6RWTaXQxsTw-8" style="edgeStyle=orthogonalEdgeStyle;rounded=0;orthogonalLoop=1;jettySize=auto;html=1;entryX=0;entryY=0.5;entryDx=0;entryDy=0;entryPerimeter=0;" parent="1" target="dGMlPyoEv6RWTaXQxsTw-7" edge="1">
          <mxGeometry relative="1" as="geometry">
            <mxPoint x="290" y="220" as="sourcePoint" />
          </mxGeometry>
        </mxCell>
        <mxCell id="dGMlPyoEv6RWTaXQxsTw-14" value="" style="verticalLabelPosition=bottom;shadow=0;dashed=0;align=center;html=1;verticalAlign=top;shape=mxgraph.electrical.abstract.filter;" parent="1" vertex="1">
          <mxGeometry x="220" y="191" width="71" height="58" as="geometry" />
        </mxCell>
        <mxCell id="dGMlPyoEv6RWTaXQxsTw-20" value="" style="verticalLabelPosition=bottom;shadow=0;dashed=0;align=center;html=1;verticalAlign=top;shape=mxgraph.electrical.abstract.multiplier;" parent="1" vertex="1">
          <mxGeometry x="580" y="92" width="50" height="50" as="geometry" />
        </mxCell>
        <mxCell id="dGMlPyoEv6RWTaXQxsTw-21" value="" style="verticalLabelPosition=bottom;shadow=0;dashed=0;align=center;html=1;verticalAlign=top;shape=mxgraph.electrical.abstract.multiplier;" parent="1" vertex="1">
          <mxGeometry x="580" y="302" width="50" height="50" as="geometry" />
        </mxCell>
        <mxCell id="dGMlPyoEv6RWTaXQxsTw-22" style="edgeStyle=orthogonalEdgeStyle;rounded=0;orthogonalLoop=1;jettySize=auto;html=1;entryX=0;entryY=0.5;entryDx=0;entryDy=0;entryPerimeter=0;" parent="1" target="dGMlPyoEv6RWTaXQxsTw-20" edge="1">
          <mxGeometry relative="1" as="geometry">
            <mxPoint x="500" y="230" as="sourcePoint" />
            <Array as="points">
              <mxPoint x="500" y="223" />
              <mxPoint x="500" y="117" />
            </Array>
          </mxGeometry>
        </mxCell>
        <mxCell id="dGMlPyoEv6RWTaXQxsTw-23" style="edgeStyle=orthogonalEdgeStyle;rounded=0;orthogonalLoop=1;jettySize=auto;html=1;entryX=0;entryY=0.5;entryDx=0;entryDy=0;entryPerimeter=0;exitX=1;exitY=0.5;exitDx=0;exitDy=0;exitPerimeter=0;" parent="1" source="dGMlPyoEv6RWTaXQxsTw-7" target="dGMlPyoEv6RWTaXQxsTw-21" edge="1">
          <mxGeometry relative="1" as="geometry">
            <mxPoint x="510" y="222" as="sourcePoint" />
          </mxGeometry>
        </mxCell>
        <mxCell id="dGMlPyoEv6RWTaXQxsTw-24" value="" style="rounded=0;whiteSpace=wrap;html=1;" parent="1" vertex="1">
          <mxGeometry x="580" y="197" width="50" height="50" as="geometry" />
        </mxCell>
        <mxCell id="dGMlPyoEv6RWTaXQxsTw-28" style="edgeStyle=orthogonalEdgeStyle;rounded=0;orthogonalLoop=1;jettySize=auto;html=1;entryX=0.5;entryY=0;entryDx=0;entryDy=0;entryPerimeter=0;" parent="1" source="dGMlPyoEv6RWTaXQxsTw-24" target="dGMlPyoEv6RWTaXQxsTw-21" edge="1">
          <mxGeometry relative="1" as="geometry" />
        </mxCell>
        <mxCell id="dGMlPyoEv6RWTaXQxsTw-29" style="edgeStyle=orthogonalEdgeStyle;rounded=0;orthogonalLoop=1;jettySize=auto;html=1;entryX=0.5;entryY=1;entryDx=0;entryDy=0;entryPerimeter=0;" parent="1" source="dGMlPyoEv6RWTaXQxsTw-24" target="dGMlPyoEv6RWTaXQxsTw-20" edge="1">
          <mxGeometry relative="1" as="geometry" />
        </mxCell>
        <mxCell id="dGMlPyoEv6RWTaXQxsTw-30" value="" style="endArrow=none;html=1;rounded=0;entryX=1;entryY=0;entryDx=0;entryDy=0;exitX=0;exitY=1;exitDx=0;exitDy=0;" parent="1" source="dGMlPyoEv6RWTaXQxsTw-24" target="dGMlPyoEv6RWTaXQxsTw-24" edge="1">
          <mxGeometry width="50" height="50" relative="1" as="geometry">
            <mxPoint x="570" y="272" as="sourcePoint" />
            <mxPoint x="620" y="222" as="targetPoint" />
          </mxGeometry>
        </mxCell>
        <mxCell id="dGMlPyoEv6RWTaXQxsTw-31" value="0°" style="text;html=1;align=center;verticalAlign=middle;whiteSpace=wrap;rounded=0;" parent="1" vertex="1">
          <mxGeometry x="560" y="193" width="60" height="30" as="geometry" />
        </mxCell>
        <mxCell id="dGMlPyoEv6RWTaXQxsTw-32" value="90°" style="text;html=1;align=center;verticalAlign=middle;whiteSpace=wrap;rounded=0;" parent="1" vertex="1">
          <mxGeometry x="590" y="221" width="60" height="30" as="geometry" />
        </mxCell>
        <mxCell id="dGMlPyoEv6RWTaXQxsTw-34" style="edgeStyle=orthogonalEdgeStyle;rounded=0;orthogonalLoop=1;jettySize=auto;html=1;entryX=1;entryY=0.5;entryDx=0;entryDy=0;" parent="1" source="dGMlPyoEv6RWTaXQxsTw-33" target="dGMlPyoEv6RWTaXQxsTw-24" edge="1">
          <mxGeometry relative="1" as="geometry" />
        </mxCell>
        <mxCell id="dGMlPyoEv6RWTaXQxsTw-33" value="" style="pointerEvents=1;verticalLabelPosition=bottom;shadow=0;dashed=0;align=center;html=1;verticalAlign=top;shape=mxgraph.electrical.signal_sources.source;aspect=fixed;points=[[0.5,0,0],[1,0.5,0],[0.5,1,0],[0,0.5,0]];elSignalType=ac;" parent="1" vertex="1">
          <mxGeometry x="690" y="197" width="50" height="50" as="geometry" />
        </mxCell>
        <mxCell id="dGMlPyoEv6RWTaXQxsTw-39" style="edgeStyle=orthogonalEdgeStyle;rounded=0;orthogonalLoop=1;jettySize=auto;html=1;" parent="1" source="dGMlPyoEv6RWTaXQxsTw-35" edge="1">
          <mxGeometry relative="1" as="geometry">
            <mxPoint x="780" y="117" as="targetPoint" />
          </mxGeometry>
        </mxCell>
        <mxCell id="dGMlPyoEv6RWTaXQxsTw-35" value="" style="verticalLabelPosition=bottom;shadow=0;dashed=0;align=center;html=1;verticalAlign=top;shape=mxgraph.electrical.abstract.filter;" parent="1" vertex="1">
          <mxGeometry x="679.5" y="88" width="71" height="58" as="geometry" />
        </mxCell>
        <mxCell id="dGMlPyoEv6RWTaXQxsTw-40" style="edgeStyle=orthogonalEdgeStyle;rounded=0;orthogonalLoop=1;jettySize=auto;html=1;" parent="1" source="dGMlPyoEv6RWTaXQxsTw-36" edge="1">
          <mxGeometry relative="1" as="geometry">
            <mxPoint x="780" y="327.0000000000001" as="targetPoint" />
          </mxGeometry>
        </mxCell>
        <mxCell id="dGMlPyoEv6RWTaXQxsTw-36" value="" style="verticalLabelPosition=bottom;shadow=0;dashed=0;align=center;html=1;verticalAlign=top;shape=mxgraph.electrical.abstract.filter;" parent="1" vertex="1">
          <mxGeometry x="679.5" y="298" width="71" height="58" as="geometry" />
        </mxCell>
        <mxCell id="dGMlPyoEv6RWTaXQxsTw-37" style="edgeStyle=orthogonalEdgeStyle;rounded=0;orthogonalLoop=1;jettySize=auto;html=1;entryX=0;entryY=0.5;entryDx=0;entryDy=0;entryPerimeter=0;" parent="1" source="dGMlPyoEv6RWTaXQxsTw-21" target="dGMlPyoEv6RWTaXQxsTw-36" edge="1">
          <mxGeometry relative="1" as="geometry" />
        </mxCell>
        <mxCell id="dGMlPyoEv6RWTaXQxsTw-38" style="edgeStyle=orthogonalEdgeStyle;rounded=0;orthogonalLoop=1;jettySize=auto;html=1;entryX=0;entryY=0.5;entryDx=0;entryDy=0;entryPerimeter=0;" parent="1" source="dGMlPyoEv6RWTaXQxsTw-20" target="dGMlPyoEv6RWTaXQxsTw-35" edge="1">
          <mxGeometry relative="1" as="geometry" />
        </mxCell>
        <mxCell id="dGMlPyoEv6RWTaXQxsTw-41" value="Q" style="text;html=1;align=center;verticalAlign=middle;whiteSpace=wrap;rounded=0;" parent="1" vertex="1">
          <mxGeometry x="760" y="312" width="60" height="30" as="geometry" />
        </mxCell>
        <mxCell id="dGMlPyoEv6RWTaXQxsTw-42" value="I" style="text;html=1;align=center;verticalAlign=middle;whiteSpace=wrap;rounded=0;" parent="1" vertex="1">
          <mxGeometry x="760" y="102" width="60" height="30" as="geometry" />
        </mxCell>
        <mxCell id="dGMlPyoEv6RWTaXQxsTw-43" value="RF BPF" style="text;html=1;align=center;verticalAlign=middle;whiteSpace=wrap;rounded=0;" parent="1" vertex="1">
          <mxGeometry x="225" y="161" width="60" height="30" as="geometry" />
        </mxCell>
        <mxCell id="dGMlPyoEv6RWTaXQxsTw-44" value="RF LNA" style="text;html=1;align=center;verticalAlign=middle;whiteSpace=wrap;rounded=0;" parent="1" vertex="1">
          <mxGeometry x="360" y="161" width="60" height="30" as="geometry" />
        </mxCell>
        <mxCell id="dGMlPyoEv6RWTaXQxsTw-50" value="LO" style="text;html=1;align=center;verticalAlign=middle;whiteSpace=wrap;rounded=0;" parent="1" vertex="1">
          <mxGeometry x="730" y="207" width="60" height="30" as="geometry" />
        </mxCell>
        <mxCell id="dGMlPyoEv6RWTaXQxsTw-51" value="Mixer" style="text;html=1;align=center;verticalAlign=middle;whiteSpace=wrap;rounded=0;" parent="1" vertex="1">
          <mxGeometry x="575" y="62" width="60" height="30" as="geometry" />
        </mxCell>
        <mxCell id="dGMlPyoEv6RWTaXQxsTw-52" value="Mixer" style="text;html=1;align=center;verticalAlign=middle;whiteSpace=wrap;rounded=0;" parent="1" vertex="1">
          <mxGeometry x="575" y="352" width="60" height="30" as="geometry" />
        </mxCell>
        <mxCell id="dGMlPyoEv6RWTaXQxsTw-53" value="&lt;div&gt;LPF&lt;/div&gt;" style="text;html=1;align=center;verticalAlign=middle;whiteSpace=wrap;rounded=0;" parent="1" vertex="1">
          <mxGeometry x="685" y="268" width="60" height="30" as="geometry" />
        </mxCell>
        <mxCell id="dGMlPyoEv6RWTaXQxsTw-54" value="LPF" style="text;html=1;align=center;verticalAlign=middle;whiteSpace=wrap;rounded=0;" parent="1" vertex="1">
          <mxGeometry x="685" y="58" width="60" height="30" as="geometry" />
        </mxCell>
      </root>
    </mxGraphModel>
  </diagram>
</mxfile>
